<?xml version="1.0" encoding="UTF-8"?>
<svg xmlns="http://www.w3.org/2000/svg" width="384" height="384" viewBox="0 0 384 384">
  <defs>
    <linearGradient id="jellyFill" x1="70" y1="32" x2="316" y2="326" gradientUnits="userSpaceOnUse">
      <stop offset="0" stop-color="#ffe07a"/>
      <stop offset="0.6" stop-color="#ffb43d"/>
      <stop offset="1" stop-color="#ff9e2c"/>
    </linearGradient>
    <filter id="bodyShadow" x="-20%" y="-20%" width="150%" height="160%">
      <feDropShadow dx="7" dy="9" stdDeviation="0" flood-color="#2b2335" flood-opacity="0.12"/>
    </filter>
  </defs>

  <ellipse cx="192" cy="351" rx="104" ry="15" fill="#2b2335" opacity="0.16"/>

  <path
    d="M192 22C285 22 352 85 352 173C352 266 287 324 192 324C97 324 32 266 32 173C32 85 99 22 192 22Z"
    fill="url(#jellyFill)"
    stroke="#2b2335"
    stroke-width="7"
    stroke-linejoin="round"
    filter="url(#bodyShadow)"
  />

  <ellipse cx="112" cy="86" rx="46" ry="30" fill="#ffffff" opacity="0.6" transform="rotate(-17 112 86)"/>

  <ellipse cx="126" cy="172" rx="15" ry="22" fill="#2b2335"/>
  <ellipse cx="258" cy="172" rx="15" ry="22" fill="#2b2335"/>
  <circle cx="132" cy="164" r="6" fill="#ffffff"/>
  <circle cx="264" cy="164" r="6" fill="#ffffff"/>

  <ellipse cx="95" cy="230" rx="22" ry="15" fill="#ff7a7a" opacity="0.5"/>
  <ellipse cx="289" cy="230" rx="22" ry="15" fill="#ff7a7a" opacity="0.5"/>

  <path d="M162 217C162 251 222 251 222 217" fill="none" stroke="#2b2335" stroke-width="7" stroke-linecap="round"/>
</svg>
